# xmcd
#
# Track frame offsets:
#	150
#	12370
#	25398
#	38001
#	51270
#	64782
#	76677
#	88131
#	101861
#	120428
#	132563
#
# Disc length: 1983 seconds
# Revision: 0
# Processed by: cddbd v1.5.2PL0 Copyright (c) Steve Scherf et al.
# Submitted via: dBpowerAMP V12.0
#
DISCID=8d07bd0b
DTITLE=Joel Fafard - Fowl Mood
DYEAR=2016
DGENRE=Country Blues
TTITLE0=Liquared and Licked
TTITLE1=Sow Good Seed
TTITLE2=Yhat Ain't Nothing
TTITLE3=Rain Comes Down
TTITLE4=Grinnin' In Your Face
TTITLE5=All I Need
TTITLE6=Rock My World
TTITLE7=Woodshed Blues
TTITLE8=Working On A Building
TTITLE9=Working on It
TTITLE10=Rolling This Way Again
EXTD=
EXTT0=
EXTT1=
EXTT2=
EXTT3=
EXTT4=
EXTT5=
EXTT6=
EXTT7=
EXTT8=
EXTT9=
EXTT10=
PLAYORDER=
